<?xml version="1.0" standalone="no"?>
<!DOCTYPE svg PUBLIC "-//W3C//DTD SVG 20010904//EN"
 "http://www.w3.org/TR/2001/REC-SVG-20010904/DTD/svg10.dtd">
<svg version="1.0" xmlns="http://www.w3.org/2000/svg"
 width="580.000000pt" height="387.000000pt" viewBox="0 0 580.000000 387.000000"
 preserveAspectRatio="xMidYMid meet">

<g transform="translate(0.000000,387.000000) scale(0.100000,-0.100000)"
fill="#000000" stroke="none">
<path d="M2277 3172 c-13 -19 -27 -135 -27 -212 0 -94 25 -211 59 -279 12 -22
21 -44 21 -49 0 -5 -19 -12 -42 -16 -62 -10 -193 -77 -264 -135 -65 -53 -143
-146 -188 -223 l-28 -48 43 15 c23 8 44 13 47 10 3 -3 -7 -26 -22 -53 -98
-173 -186 -373 -186 -426 0 -18 2 -18 28 7 16 15 31 25 33 22 3 -2 0 -37 -7
-77 -41 -232 14 -485 144 -660 84 -113 254 -249 409 -327 34 -17 64 -31 67
-31 2 0 -7 26 -20 57 -21 53 -32 123 -19 123 3 0 24 -10 47 -21 148 -76 288
-109 481 -116 291 -10 494 46 729 203 265 176 445 448 514 774 24 116 24 345
0 458 -22 106 -64 230 -106 312 -33 66 -116 200 -124 200 -2 0 16 -35 40 -77
189 -332 202 -716 34 -1058 -145 -298 -415 -514 -745 -597 -121 -30 -379 -33
-499 -4 -149 35 -280 93 -407 182 -42 29 -80 50 -83 47 -12 -13 -6 -181 10
-232 8 -29 13 -55 10 -58 -8 -8 -123 84 -160 130 -37 46 -88 143 -101 192 -4
17 -10 68 -14 115 l-6 85 -19 -28 c-10 -15 -24 -43 -31 -63 -19 -57 -29 -24
-33 112 -6 185 33 319 135 461 57 80 54 85 -29 53 -28 -11 -53 -18 -55 -16 -5
5 56 87 96 129 53 57 140 122 204 153 31 16 57 31 57 35 0 3 -24 13 -52 21
l-53 14 35 16 c131 57 327 58 495 3 11 -4 -18 30 -64 75 l-84 81 39 -7 c22 -4
56 -13 78 -20 21 -8 40 -14 41 -14 1 0 0 11 -3 25 -4 21 -1 25 19 25 75 0 121
-34 193 -141 25 -37 31 -41 39 -28 9 14 18 8 63 -40 43 -45 53 -52 54 -35 1
88 157 67 395 -54 94 -48 161 -75 205 -84 36 -6 67 -13 69 -14 1 -2 -9 -28
-24 -59 -21 -42 -29 -74 -31 -128 -4 -81 -3 -80 -101 -129 -35 -18 -62 -33
-60 -34 1 -1 45 12 97 30 l94 33 17 71 c20 79 57 159 102 215 16 21 28 39 26
41 -2 1 -44 10 -94 20 -135 26 -257 88 -349 179 -40 40 -92 104 -115 144 -24
40 -48 76 -54 81 -7 4 -43 21 -82 37 -100 41 -314 148 -424 213 -178 104 -335
236 -424 354 -20 27 -38 45 -40 40z m216 -334 c30 -25 76 -58 101 -74 80 -51
51 -56 -47 -9 -33 15 -46 18 -43 9 3 -8 9 -21 12 -29 9 -22 -23 -19 -59 7
l-30 22 6 -37 c7 -46 -3 -47 -37 -2 -44 57 -76 139 -83 208 -10 106 -1 109 66
24 33 -41 84 -95 114 -119z m547 -355 c30 -14 78 -49 105 -77 28 -28 71 -67
97 -85 27 -19 46 -36 45 -38 -2 -2 -23 4 -47 12 -25 9 -73 15 -117 14 -71 -1
-77 0 -106 29 -18 18 -32 45 -36 68 -8 47 -35 64 -104 64 -57 0 -60 18 -6 37
45 17 101 9 169 -24z"/>
<path d="M2463 2185 c-81 -22 -193 -83 -193 -106 0 -5 12 -9 28 -9 31 0 130
-54 139 -76 3 -8 -5 -24 -19 -38 -33 -30 -57 -67 -68 -105 -9 -32 -9 -32 22
-26 l31 7 -22 -33 c-45 -68 -100 -220 -82 -227 4 -1 40 9 81 23 40 14 77 25
80 25 4 0 10 -33 14 -74 18 -200 96 -345 232 -432 97 -62 242 -94 360 -79 l57
7 -56 22 c-78 32 -151 89 -197 154 -22 30 -40 58 -40 62 0 4 18 13 40 20 22 7
39 16 38 19 -2 3 -20 41 -41 83 -43 87 -67 184 -67 275 l0 62 53 15 c107 29
186 28 306 -4 37 -10 41 -14 35 -33 -8 -26 -8 -113 1 -127 3 -5 27 6 53 24 66
47 85 55 148 67 43 8 69 21 112 56 32 25 58 49 60 53 5 13 -118 88 -213 129
-173 76 -412 120 -571 105 -69 -6 -75 -5 -145 30 -42 21 -97 39 -127 43 -52 6
-52 6 -35 26 10 11 38 33 62 49 l45 28 -35 -1 c-18 0 -58 -7 -86 -14z m233
-538 c1 -118 17 -182 65 -249 l21 -28 -36 -15 c-20 -9 -36 -19 -36 -23 0 -19
77 -123 133 -180 l62 -63 -49 15 c-92 28 -187 109 -247 210 l-21 36 31 11 c36
13 36 8 15 96 -21 88 -13 175 21 248 15 30 30 55 33 55 4 0 7 -51 8 -113z"/>
</g>
</svg>
